<svg xmlns="http://www.w3.org/2000/svg" width="320" height="320" viewBox="0 0 320 320">
  <title>fx discovery 01</title>
  <desc>Original Potato Kid vector art. Status: final. Revision: asset-playable-b-2.</desc>
  <path d="M160 38 Q165 57 184 62 Q165 67 160 86 Q155 67 136 62 Q155 57 160 38 Z" fill="#d8b576" stroke="#1a1a1a" stroke-width="5" stroke-linecap="round" stroke-linejoin="round"/><path d="M35 159 Q40 169 50 174 Q40 179 35 189 Q30 179 20 174 Q30 169 35 159 Z" fill="#d8b576" stroke="#1a1a1a" stroke-width="5" stroke-linecap="round" stroke-linejoin="round"/><path d="M285 151 Q290 161 300 166 Q290 171 285 181 Q280 171 270 166 Q280 161 285 151 Z" fill="#d8b576" stroke="#1a1a1a" stroke-width="5" stroke-linecap="round" stroke-linejoin="round"/><path d="M77 115 l-13 -15 M240 105 l13 -15 M55 241 l-16 7 M266 237 l17 9" fill="none" stroke="#1a1a1a" stroke-width="5" stroke-linecap="round" stroke-linejoin="round"/>
</svg>
